<svg width="42" height="42" viewBox="0 0 42 42" fill="none" xmlns="http://www.w3.org/2000/svg">
<path d="M12.8824 18.4V11.25C12.8824 10.173 13.7514 9.3 14.8235 9.3C15.8956 9.3 16.7647 10.173 16.7647 11.25V18.4C16.7647 20.5539 15.0265 22.3 12.8824 22.3C10.7382 22.3 9 20.5539 9 18.4V13.2M21.2941 8H24.7882C26.9626 8 28.0497 8 28.8802 8.42507C29.6107 8.79898 30.2046 9.3956 30.5768 10.1294C31 10.9637 31 12.0558 31 14.24V27.76C31 29.9442 31 31.0363 30.5768 31.8706C30.2046 32.6044 29.6107 33.201 28.8802 33.5749C28.0497 34 26.9626 34 24.7882 34H16.5059C14.3316 34 13.2444 34 12.4139 33.5749C11.6834 33.201 11.0895 32.6044 10.7173 31.8706C10.2941 31.0363 10.2941 29.9442 10.2941 27.76V26.85" stroke="#00474D" stroke-width="2" stroke-linecap="round" stroke-linejoin="round"/>
</svg>
