<svg width="42" height="42" viewBox="0 0 42 42" fill="none" xmlns="http://www.w3.org/2000/svg">
<path d="M10.9537 32.6372L19.5292 23.8418C20.044 23.3138 20.3015 23.0498 20.5983 22.9509C20.8594 22.8639 21.1406 22.8639 21.4017 22.9509C21.6985 23.0498 21.956 23.3138 22.4708 23.8418L30.9891 32.5786M23.6 25L27.3292 21.1752C27.844 20.6471 28.1014 20.3831 28.3983 20.2842C28.6594 20.1972 28.9406 20.1972 29.2017 20.2842C29.4985 20.3831 29.756 20.6471 30.2708 21.1752L34 25M18.4 17C18.4 18.4728 17.2359 19.6667 15.8 19.6667C14.3641 19.6667 13.2 18.4728 13.2 17C13.2 15.5272 14.3641 14.3333 15.8 14.3333C17.2359 14.3333 18.4 15.5272 18.4 17ZM14.24 33H27.76C29.9442 33 31.0363 33 31.8706 32.564C32.6044 32.1805 33.201 31.5686 33.5749 30.816C34 29.9603 34 28.8402 34 26.6V15.4C34 13.1598 34 12.0397 33.5749 11.184C33.201 10.4314 32.6044 9.81947 31.8706 9.43597C31.0363 9 29.9442 9 27.76 9H14.24C12.0558 9 10.9637 9 10.1294 9.43597C9.3956 9.81947 8.79898 10.4314 8.42507 11.184C8 12.0397 8 13.1598 8 15.4V26.6C8 28.8402 8 29.9603 8.42507 30.816C8.79898 31.5686 9.3956 32.1805 10.1294 32.564C10.9637 33 12.0558 33 14.24 33Z" stroke="#00474D" stroke-width="2" stroke-linecap="round" stroke-linejoin="round"/>
</svg>
