<svg width="42" height="42" viewBox="0 0 42 42" fill="none" xmlns="http://www.w3.org/2000/svg">
<path d="M21 34C28.1797 34 34 28.1797 34 21C34 13.8203 28.1797 8 21 8C13.8203 8 8 13.8203 8 21C8 28.1797 13.8203 34 21 34Z" stroke="#00474D" stroke-width="2" stroke-linecap="round" stroke-linejoin="round"/>
<path d="M17.75 17.0549C17.75 16.4345 17.75 16.1242 17.8797 15.951C17.9927 15.8001 18.1656 15.7057 18.3537 15.6922C18.5695 15.6768 18.8305 15.8446 19.3524 16.1801L25.4892 20.1252C25.9421 20.4163 26.1685 20.5619 26.2467 20.747C26.3151 20.9087 26.3151 21.0913 26.2467 21.253C26.1685 21.4381 25.9421 21.5837 25.4892 21.8748L19.3524 25.8199C18.8305 26.1554 18.5695 26.3232 18.3537 26.3078C18.1656 26.2943 17.9927 26.1999 17.8797 26.049C17.75 25.8758 17.75 25.5655 17.75 24.9451V17.0549Z" stroke="#00474D" stroke-width="2" stroke-linecap="round" stroke-linejoin="round"/>
</svg>
